<svg width="21" height="20" viewBox="0 0 21 20" fill="none" xmlns="http://www.w3.org/2000/svg">
<g clip-path="url(#clip0_1224_1218)">
<path d="M10.205 1.60996C10.3758 1.19932 10.9575 1.19932 11.1283 1.60996L13.1944 6.57744C13.2664 6.75056 13.4292 6.86885 13.6161 6.88383L18.9789 7.31376C19.4222 7.3493 19.602 7.90256 19.2642 8.19189L15.1783 11.6919C15.0359 11.8139 14.9737 12.0053 15.0172 12.1876L16.2655 17.4208C16.3687 17.8534 15.8981 18.1954 15.5186 17.9635L10.9273 15.1592C10.7672 15.0615 10.566 15.0615 10.406 15.1592L5.81468 17.9635C5.43514 18.1954 4.96451 17.8534 5.0677 17.4208L6.31601 12.1876C6.35952 12.0053 6.29733 11.8139 6.15493 11.6919L2.06904 8.19189C1.73127 7.90256 1.91103 7.3493 2.35436 7.31376L7.71717 6.88383C7.90407 6.86885 8.06687 6.75056 8.13887 6.57744L10.205 1.60996Z" fill="#F2F4F7"/>
<g clip-path="url(#clip1_1224_1218)">
<path d="M10.205 1.60996C10.3758 1.19932 10.9575 1.19932 11.1283 1.60996L13.1944 6.57744C13.2664 6.75056 13.4292 6.86885 13.6161 6.88383L18.9789 7.31376C19.4222 7.3493 19.602 7.90256 19.2642 8.19189L15.1783 11.6919C15.0359 11.8139 14.9737 12.0053 15.0172 12.1876L16.2655 17.4208C16.3687 17.8534 15.8981 18.1954 15.5186 17.9635L10.9273 15.1592C10.7672 15.0615 10.566 15.0615 10.406 15.1592L5.81468 17.9635C5.43514 18.1954 4.96451 17.8534 5.0677 17.4208L6.31601 12.1876C6.35952 12.0053 6.29733 11.8139 6.15493 11.6919L2.06904 8.19189C1.73127 7.90256 1.91103 7.3493 2.35436 7.31376L7.71717 6.88383C7.90407 6.86885 8.06687 6.75056 8.13887 6.57744L10.205 1.60996Z" fill="#FDB022"/>
</g>
</g>
<defs>
<clipPath id="clip0_1224_1218">
<rect width="20" height="20" fill="white" transform="translate(0.666626)"/>
</clipPath>
<clipPath id="clip1_1224_1218">
<rect width="20" height="20" fill="white" transform="translate(0.666626)"/>
</clipPath>
</defs>
</svg>
